HIERARCHY
ROOT Hips
{
	OFFSET 0.000000 0.000000 0.000000
	CHANNELS 6 Xposition Yposition Zposition Zrotation Yrotation Xrotation 
	JOINT LHipJoint
	{
		OFFSET 0.000000 0.000000 0.000000
		CHANNELS 3 Zrotation Yrotation Xrotation
		JOINT LeftUpLeg
		{
			OFFSET 1.363060 -1.794630 0.839290
			CHANNELS 3 Zrotation Yrotation Xrotation
			JOINT LeftLeg
			{
				OFFSET 2.448110 -6.726130 0.000000
				CHANNELS 3 Zrotation Yrotation Xrotation
				JOINT LeftFoot
				{
					OFFSET 2.562200 -7.039590 0.000000
					CHANNELS 3 Zrotation Yrotation Xrotation
					JOINT LeftToeBase
					{
						OFFSET 0.157640 -0.433110 2.322550
						CHANNELS 3 Zrotation Yrotation Xrotation
						End Site
						{
							OFFSET 0.000000 0.000000 0.000000
						}
					}
				}
			}
		}
	}
	JOINT RHipJoint
	{
		OFFSET 0.000000 0.000000 0.000000
		CHANNELS 3 Zrotation Yrotation Xrotation
		JOINT RightUpLeg
		{
			OFFSET -1.305520 -1.794630 0.839290
			CHANNELS 3 Zrotation Yrotation Xrotation
			JOINT RightLeg
			{
				OFFSET -2.542530 -6.985550 0.000000
				CHANNELS 3 Zrotation Yrotation Xrotation
				JOINT RightFoot
				{
					OFFSET -2.568260 -7.056230 0.000000
					CHANNELS 3 Zrotation Yrotation Xrotation
					JOINT RightToeBase
					{
						OFFSET -0.164730 -0.452590 2.363150
						CHANNELS 3 Zrotation Yrotation Xrotation
						End Site
						{
							OFFSET 0.000000 0.000000 0.000000
						}
					}
				}
			}
		}
	}
	JOINT LowerBack
	{
		OFFSET 0.000000 0.000000 0.000000
		CHANNELS 3 Zrotation Yrotation Xrotation
		JOINT Spine
		{
			OFFSET 0.028270 2.035590 -0.193380
			CHANNELS 3 Zrotation Yrotation Xrotation
			JOINT Spine1
			{
				OFFSET 0.056720 2.048850 -0.042750
				CHANNELS 3 Zrotation Yrotation Xrotation
				JOINT Neck
				{
					OFFSET 0.000000 0.000000 0.000000
					CHANNELS 3 Zrotation Yrotation Xrotation
					JOINT Neck1
					{
						OFFSET -0.054170 1.746240 0.172020
						CHANNELS 3 Zrotation Yrotation Xrotation
						JOINT Head
						{
							OFFSET 0.104070 1.761360 -0.123970
							CHANNELS 3 Zrotation Yrotation Xrotation
							End Site
							{
								OFFSET 0.000000 0.000000 0.000000
							}
						}
					}
				}
				JOINT LeftShoulder
				{
					OFFSET 0.000000 0.000000 0.000000
					CHANNELS 3 Zrotation Yrotation Xrotation
					JOINT LeftArm
					{
						OFFSET 3.362410 1.200890 -0.311210
						CHANNELS 3 Zrotation Yrotation Xrotation
						JOINT LeftForeArm
						{
							OFFSET 4.983000 -0.000000 -0.000000
							CHANNELS 3 Zrotation Yrotation Xrotation
							JOINT LeftHand
							{
								OFFSET 3.483560 -0.000000 -0.000000
								CHANNELS 3 Zrotation Yrotation Xrotation
								JOINT LeftFingerBase
								{
									OFFSET 0.000000 0.000000 0.000000
									CHANNELS 3 Zrotation Yrotation Xrotation
									JOINT LeftHandIndex1
									{
										OFFSET 0.715260 -0.000000 -0.000000
										CHANNELS 3 Zrotation Yrotation Xrotation
										End Site
										{
											OFFSET 0.000000 0.000000 0.000000
										}
									}
								}
								JOINT LThumb
								{
									OFFSET 0.000000 0.000000 0.000000
									CHANNELS 3 Zrotation Yrotation Xrotation
									End Site
									{
										OFFSET 0.000000 0.000000 0.000000
									}
								}
							}
						}
					}
				}
				JOINT RightShoulder
				{
					OFFSET 0.000000 0.000000 0.000000
					CHANNELS 3 Zrotation Yrotation Xrotation
					JOINT RightArm
					{
						OFFSET -3.136600 1.374050 -0.404650
						CHANNELS 3 Zrotation Yrotation Xrotation
						JOINT RightForeArm
						{
							OFFSET -5.241900 -0.000000 -0.000000
							CHANNELS 3 Zrotation Yrotation Xrotation
							JOINT RightHand
							{
								OFFSET -3.444170 -0.000000 -0.000000
								CHANNELS 3 Zrotation Yrotation Xrotation
								JOINT RightFingerBase
								{
									OFFSET 0.000000 0.000000 0.000000
									CHANNELS 3 Zrotation Yrotation Xrotation
									JOINT RightHandIndex1
									{
										OFFSET -0.622530 -0.000000 -0.000000
										CHANNELS 3 Zrotation Yrotation Xrotation
										End Site
										{
											OFFSET 0.000000 0.000000 0.000000
										}
									}
								}
								JOINT RThumb
								{
									OFFSET 0.000000 0.000000 0.000000
									CHANNELS 3 Zrotation Yrotation Xrotation
									End Site
									{
										OFFSET 0.000000 0.000000 0.000000
									}
								}
							}
						}
					}
				}
			}
		}
	}
}
MOTION
Frames: 10
Frame Time: 0.033333
1.368723 16.445001 -3.641012 91.486612 -31.452280 -41.444636 -121.121037 -43.549756 66.543936 3.420793 11.543245 -42.151993 -39.089875 59.931767 -39.109887 -12.610183 14.211077 0.006218 -0.563739 0.112854 -92.116506 31.981222 -9.545718 -109.574996 -153.568022 -83.837855 115.337486 132.158245 -34.853623 -128.956904 4.405916 -5.086192 -21.216075 0.494042 -0.137502 -73.030930 -89.493429 70.129400 -8.837549 -151.522098 75.824372 -152.887873 -172.861692 68.380788 177.715780 -1.449710 11.926517 0.179448 23.074305 8.279142 -7.537864 0.416429 -0.332156 0.389875 86.647328 51.670552 -26.355486 -32.338206 56.633657 -101.449191 -90.583086 45.616392 -154.536308 -13.402693 -14.612146 0.232931 12.324694 46.952346 -11.707869 -0.520607 -0.316819 0.416161 0.403944 0.382819 -0.418543 43.110059 67.635148 68.289433 52.969404 3.768906 -177.588345 30.069333 -41.221516 38.797631 0.926404 10.830333 -17.127293 -9.013093 16.205585 -174.524022 -0.539258 0.435587 -0.465081 -0.359732 -0.496603 -0.269646 
1.273432 16.546510 -2.887594 91.470909 -30.524076 -39.537591 -119.479154 -45.519327 64.195519 2.753031 12.666686 -41.328778 -46.218341 60.446874 -37.063045 -17.107691 25.726940 4.961882 0.086705 0.438442 -86.769263 31.045029 -8.010489 -109.545870 -147.010345 -85.859750 107.356557 133.088236 -33.881440 -123.367317 3.964983 -2.465146 -14.520764 0.576112 -0.221137 -69.292978 -88.783615 69.565935 -8.726297 -148.172900 76.795703 -149.454115 -177.042608 68.437388 172.316198 -1.577951 7.557087 3.526064 19.499146 4.895872 -8.619052 0.373709 -0.398967 0.447591 82.028526 49.557239 -26.475503 -30.842771 67.220138 -101.897813 -96.773008 48.275478 -155.311415 -19.368418 -21.549597 14.355813 7.005925 39.343153 -7.030898 -0.337683 -0.361179 0.403735 0.459692 0.353702 -0.420186 44.766077 67.852229 68.595777 53.259702 7.976930 -177.618058 19.753517 -45.766812 43.876202 5.473668 14.578074 -19.185620 -2.680032 13.905361 -155.468428 -0.367309 0.438572 -0.444687 -0.459616 -0.410806 -0.331763 
1.146430 16.662372 -2.206506 91.288515 -29.448521 -36.941975 -115.927494 -48.041033 60.211303 2.687879 14.643225 -39.467801 -58.191731 62.956297 -35.922677 -11.467531 27.937209 11.535885 0.890001 0.701300 -79.813684 29.975540 -6.485879 -107.707117 -147.367216 -89.737291 106.814250 129.812387 -32.997451 -115.918490 2.465286 -2.662632 -7.006320 0.460188 -0.205646 -64.937627 -88.492179 69.651889 -8.760318 -147.348409 78.032220 -147.687510 179.077395 70.115411 167.963560 -4.283760 7.939604 6.717427 18.243894 -1.060417 -8.023016 0.402565 -0.365680 0.365462 75.755520 48.256523 -26.595322 -28.478448 75.506847 -101.211738 -97.409204 51.905009 -152.902229 -31.859873 -23.279323 24.635207 -1.968526 28.012802 -5.812893 -0.418153 -0.465262 0.425854 0.469676 0.453367 -0.510453 49.590227 68.149071 73.831697 52.283005 13.926661 -179.497089 5.593108 -47.615622 52.462006 2.318949 13.877448 -15.525748 0.059170 13.798418 -148.344973 -0.546814 0.377752 -0.466131 -0.415540 -0.450156 -0.401900 
1.000030 16.773572 -1.601857 91.282386 -29.412441 -35.802014 -111.080424 -50.568786 55.874473 4.054236 17.247465 -38.338830 -69.388933 64.430177 -33.883639 -9.408277 32.758051 13.201228 1.918513 0.770989 -68.592467 30.718687 -5.076022 -106.325563 27.753994 -86.478279 -69.637292 128.648994 -32.150686 -113.542936 -0.739188 -4.508603 -7.213220 0.555193 -0.150080 -58.941568 -88.694825 69.715840 -8.632432 -147.459476 78.569838 -147.258217 174.042751 70.784646 162.582382 -7.172513 3.386992 8.226468 18.218572 1.082384 -0.712187 0.424998 -0.327644 0.340538 71.801472 47.680434 -25.438003 -23.343813 82.966944 -97.495732 -89.946026 57.665706 -145.332445 -43.632868 -21.119246 35.669924 -10.435265 14.269100 1.087121 -0.351128 -0.409272 0.389653 0.443341 0.339626 -0.483758 54.572565 66.902857 78.415123 48.911337 21.331972 178.979314 -10.465240 -47.370212 61.825467 -0.087695 19.069439 -15.350284 19.733012 7.027947 -137.357972 -0.355863 0.536123 -0.439246 -0.471667 -0.339046 -0.354317 
0.861560 16.878038 -1.046405 91.464808 -29.089006 -35.985101 -105.953466 -51.886568 52.067744 5.194757 18.215047 -38.827338 -77.450380 65.962019 -31.205647 -0.331804 29.667452 13.264780 3.150799 0.694924 -56.774728 30.459911 -4.921917 -106.096555 -0.776699 -82.357391 -42.768113 126.706647 -31.654413 -114.045109 -1.337282 -6.794913 -9.027870 0.444261 -0.124788 -51.153056 -90.668059 70.337930 -10.479618 -149.857886 79.228174 -148.927993 171.222287 71.321057 159.541720 -11.018370 5.300890 11.436341 20.884623 -3.800402 0.904140 0.382239 -0.321898 0.365123 67.794799 48.181830 -24.339799 -2.022104 88.176773 -75.973970 -72.200078 59.922225 -129.609100 -49.566243 -17.935062 38.071301 -16.505401 -0.044796 -2.229684 -0.375517 -0.375546 0.422415 0.496989 0.443613 -0.436662 63.130999 66.779578 86.466502 45.968175 28.156926 175.646866 -20.741271 -46.206370 68.302301 -7.067897 23.880986 -13.356495 36.027394 1.392426 -128.124522 -0.589850 0.335851 -0.444146 -0.341895 -0.429744 -0.384492 
0.720368 16.976047 -0.509059 90.522544 -30.523428 -33.145132 -100.114927 -53.912094 49.930966 7.636188 19.952005 -41.273192 -82.496738 66.671970 -27.752282 6.869728 27.224785 5.964333 3.532066 0.327452 -44.770754 24.626231 -10.191914 -102.659687 118.841548 -77.725619 -163.132325 125.989043 -38.997796 -112.796358 -3.814892 -5.281148 -8.961256 0.821732 -0.184673 -41.236678 -92.683422 69.212471 -13.537641 -148.426725 78.701349 -146.671895 165.296793 72.528736 152.384109 -13.813060 5.370043 11.994329 22.483759 0.223476 5.943840 0.459520 -0.315568 0.351390 64.700765 47.849230 -21.884520 147.845798 86.609037 74.911733 -44.484651 55.198146 -106.625639 -45.998091 -13.724941 41.381112 -22.578578 -10.253713 3.198627 -0.412698 -0.372347 0.463182 0.405182 0.440027 -0.487877 69.993869 66.092896 94.785553 42.298194 35.181839 171.674815 -26.921794 -44.672699 72.678349 -10.797377 26.576836 -8.560615 52.578088 -2.168172 -108.504383 -0.401931 0.487044 -0.413709 -0.520140 -0.421870 -0.359636 
0.581971 17.063493 0.020197 91.448364 -30.071212 -34.017476 -97.481871 -51.963782 49.606095 10.907049 19.645383 -45.346550 -87.635867 68.857255 -32.365787 13.352675 20.859096 -2.053067 3.817383 -0.007362 -33.588562 27.133826 -9.058658 -101.673370 88.348419 -75.304688 -135.571812 123.364090 -40.626914 -113.826680 -6.227649 -4.244021 -11.403239 0.539607 -0.145695 -32.896611 -96.375783 69.979781 -16.636654 -154.120372 78.524650 -152.773486 162.064848 72.618972 148.744844 -16.265632 4.055653 13.363810 23.255540 -2.365613 4.734597 0.445577 -0.421692 0.482903 63.867148 48.660311 -18.637634 155.859498 81.376639 87.951507 -31.548205 42.988400 -97.744000 -40.925329 -7.789926 39.715402 -26.627742 -18.535748 -1.592030 -0.478230 -0.375092 0.326231 0.361670 0.285270 -0.300850 77.276714 65.945031 102.249671 36.518511 42.269407 164.588657 -34.754910 -44.927765 78.832216 -12.326386 30.952532 -2.295499 62.979285 -14.388490 -93.672034 -0.475783 0.444084 -0.368487 -0.303024 -0.408129 -0.447802 
0.456591 17.132556 0.541701 92.274822 -30.328601 -34.943048 -96.014995 -50.830028 50.068256 13.465279 20.884479 -48.651443 -88.040164 69.757288 -35.182962 18.738941 15.082271 -5.764436 3.371604 -0.264156 -25.930322 29.120796 -9.209218 -102.851816 67.400805 -74.989093 -115.288440 121.886405 -41.173079 -115.788605 -9.678300 -4.438817 -12.511875 0.407701 -0.030495 -24.084328 -99.621285 70.350354 -18.413132 -152.578657 77.603086 -151.467000 157.737306 71.654706 144.126496 -17.125615 6.417777 14.349751 22.900480 1.080778 3.684223 0.437463 -0.403594 0.299581 63.312699 48.508491 -14.027073 160.373587 76.642305 98.809031 -23.228392 31.175977 -94.020656 -31.548496 -5.849078 34.657565 -27.009407 -28.004126 -4.024969 -0.431242 -0.339679 0.444993 0.423741 0.486334 -0.417083 83.757529 66.266911 111.045870 28.383466 48.749793 153.347670 -44.606653 -45.823999 89.358358 -15.940459 33.380746 0.490976 64.979201 -22.088536 -72.331368 -0.423087 0.352287 -0.377929 -0.531593 -0.420413 -0.334718 
0.354431 17.176341 1.059741 92.913961 -30.775387 -35.518067 -96.835880 -49.163715 53.935758 16.314529 22.716306 -53.621814 -81.245971 70.516130 -35.532275 24.429803 8.417533 -9.668336 3.304518 -0.365687 -21.479040 30.691028 -9.559759 -104.944146 51.189834 -74.376044 -99.628685 122.544264 -41.812758 -119.375598 -7.298289 -3.557856 -13.810601 0.464411 -0.058919 -18.405420 -102.349064 70.524673 -20.717568 -157.438584 77.039809 -156.621100 158.374792 71.234149 144.535950 -17.556154 4.988722 14.423106 21.608345 5.234261 3.511228 0.374430 -0.336826 0.492529 63.618232 49.134955 -10.779904 148.751598 73.043163 94.168447 -26.499618 29.075020 -99.593412 -30.549293 -6.879705 36.654101 -23.409973 -36.750712 -16.580103 -0.397330 -0.427875 0.337356 0.448081 0.279404 -0.353699 88.865503 65.795688 116.774054 18.435275 54.442681 140.756406 -54.584566 -48.299235 101.223797 -18.531550 37.275514 4.182740 59.591638 -32.615940 -45.715357 -0.398679 0.437564 -0.302364 -0.256956 -0.362592 -0.462517 
0.275165 17.188333 1.583463 93.908697 -31.501624 -35.776720 -98.130598 -48.427207 55.917649 18.891338 23.851099 -55.303727 -74.851961 71.112956 -39.771013 32.958045 2.837082 -15.022036 2.872458 -0.316712 -21.204183 31.528491 -10.453482 -106.743623 43.330629 -72.740929 -92.124493 121.726199 -44.453252 -122.369958 -6.181928 -3.803990 -16.017712 0.529893 -0.021185 -14.888543 -103.575543 69.628657 -20.684733 -159.932512 75.246793 -158.918652 158.286473 71.662476 144.773263 -15.068491 8.641201 14.584817 15.892039 5.321635 1.107424 0.389056 -0.510514 0.298311 66.940251 51.115607 -4.931906 133.945641 71.221100 88.494974 -31.997350 30.465508 -107.245338 -26.668223 -11.752060 38.874748 -14.852346 -38.848572 -33.663698 -0.477585 -0.362073 0.368122 0.289462 0.401239 -0.412313 94.858408 65.810859 123.627487 8.624339 57.573351 124.884399 -67.477865 -47.432176 117.104805 -24.008696 37.202444 8.462113 60.165270 -31.917507 -26.602991 -0.454321 0.333427 -0.414043 -0.480397 -0.410401 -0.236588 
